<svg width="12" height="13" viewBox="0 0 12 13" fill="none" xmlns="http://www.w3.org/2000/svg">
<path opacity="0.4" d="M6 11.5C8.76142 11.5 11 9.26142 11 6.5C11 3.73858 8.76142 1.5 6 1.5C3.23858 1.5 1 3.73858 1 6.5C1 9.26142 3.23858 11.5 6 11.5Z" fill="#FF0004"/>
<path d="M6.53088 6.50038L7.76588 5.26539C7.91238 5.11889 7.91238 4.88138 7.76588 4.73488C7.61938 4.58838 7.38188 4.58838 7.23538 4.73488L6.00038 5.96989L4.76538 4.73488C4.61888 4.58838 4.38138 4.58838 4.23488 4.73488C4.08838 4.88138 4.08838 5.11889 4.23488 5.26539L5.46988 6.50038L4.23488 7.73536C4.08838 7.88186 4.08838 8.11938 4.23488 8.26588C4.30788 8.33888 4.40387 8.37587 4.49987 8.37587C4.59587 8.37587 4.69187 8.33938 4.76487 8.26588L5.99987 7.03086L7.23487 8.26588C7.30787 8.33888 7.40387 8.37587 7.49987 8.37587C7.59587 8.37587 7.69187 8.33938 7.76487 8.26588C7.91137 8.11938 7.91137 7.88186 7.76487 7.73536L6.53088 6.50038Z" fill="white"/>
</svg>
