<svg width="19" height="18" viewBox="0 0 19 18" fill="none" xmlns="http://www.w3.org/2000/svg">
<path d="M17.5824 3.61023L14.713 0.740833C14.371 0.397914 13.8965 0.202148 13.413 0.202148H3.87106C1.76574 0.202148 0.65332 1.31457 0.65332 3.41989V14.4521C0.65332 16.5575 1.76574 17.6699 3.87106 17.6699H14.9033C17.0086 17.6699 18.1211 16.5575 18.1211 14.4521V4.91025C18.1211 4.42667 17.9244 3.95223 17.5824 3.61023ZM13.5243 16.7505H5.25009V11.2344C5.25009 10.5725 5.50751 10.3151 6.16945 10.3151H12.6049C13.2669 10.3151 13.5243 10.5725 13.5243 11.2344V16.7505ZM17.2017 14.4521C17.2017 16.0417 16.4929 16.7505 14.9033 16.7505H14.4436V11.2344C14.4436 10.0659 13.7734 9.3957 12.6049 9.3957H6.16945C5.00095 9.3957 4.33074 10.0659 4.33074 11.2344V16.7505H3.87106C2.2815 16.7505 1.57268 16.0417 1.57268 14.4521V3.41989C1.57268 1.83033 2.2815 1.1215 3.87106 1.1215H13.413C13.6547 1.1215 13.892 1.21985 14.063 1.39085L16.9324 4.26024C17.1043 4.43124 17.2017 4.66846 17.2017 4.91025V14.4521ZM12.1453 5.2586C12.1453 5.51234 11.9393 5.71828 11.6856 5.71828H7.0888C6.83506 5.71828 6.62913 5.51234 6.62913 5.2586C6.62913 5.00486 6.83506 4.79892 7.0888 4.79892H11.6856C11.9393 4.79892 12.1453 5.00486 12.1453 5.2586Z" fill="white"/>
</svg>
