<svg width="234" height="233" viewBox="0 0 234 233" fill="none" xmlns="http://www.w3.org/2000/svg">
<path d="M28.6279 0.581055H205.372C220.464 0.581055 232.698 12.8157 232.698 27.9072V204.651C232.698 219.743 220.464 231.978 205.372 231.978H28.6279C13.5364 231.978 1.30176 219.743 1.30176 204.651V27.9072C1.30176 12.8157 13.5364 0.581055 28.6279 0.581055Z" stroke="#CDCDCD" stroke-width="1.16279"/>
<circle cx="117" cy="125.58" r="9.30234" stroke="#262D60" stroke-width="6.97676" stroke-linecap="round"/>
<path d="M79.7906 153.491C73.9496 145.716 70.4883 136.052 70.4883 125.579C70.4883 99.8914 91.3123 79.0674 117 79.0674C142.688 79.0674 163.512 99.8914 163.512 125.579C163.512 136.052 160.05 145.716 154.209 153.491" stroke="#262D60" stroke-width="6.97676" stroke-linecap="round"/>
<path d="M96.1988 144.184C91.7798 139.246 89.0928 132.726 89.0928 125.579C89.0928 110.166 101.587 97.6719 117 97.6719C132.412 97.6719 144.907 110.166 144.907 125.579C144.907 132.726 142.22 139.246 137.801 144.184" stroke="#262D60" stroke-width="6.97676" stroke-linecap="round"/>
</svg>
