<svg width="13" height="13" viewBox="0 0 13 13" fill="none" xmlns="http://www.w3.org/2000/svg">
<path opacity="0.4" d="M6.02344 11.8496C8.78486 11.8496 11.0234 9.61103 11.0234 6.84961C11.0234 4.08819 8.78486 1.84961 6.02344 1.84961C3.26201 1.84961 1.02344 4.08819 1.02344 6.84961C1.02344 9.61103 3.26201 11.8496 6.02344 11.8496Z" fill="#15FF00"/>
<path d="M5.43982 8.391C5.34382 8.391 5.24782 8.35449 5.17482 8.28099L4.00831 7.11451C3.86181 6.96801 3.86181 6.7305 4.00831 6.584C4.15481 6.4375 4.39231 6.4375 4.53881 6.584L5.44032 7.48549L7.50831 5.41749C7.65481 5.27099 7.89231 5.27099 8.03882 5.41749C8.18532 5.56399 8.18532 5.80151 8.03882 5.94801L5.70532 8.28151C5.63182 8.35451 5.53582 8.391 5.43982 8.391Z" fill="white"/>
</svg>
