<svg width="20" height="20" viewBox="0 0 20 20" fill="none" xmlns="http://www.w3.org/2000/svg">
<path d="M10 6.49997C8.07 6.49997 6.5 8.06997 6.5 9.99997C6.5 11.93 8.07 13.5 10 13.5C11.93 13.5 13.5 11.93 13.5 9.99997C13.5 8.06997 11.93 6.49997 10 6.49997ZM10 12.5C8.622 12.5 7.5 11.378 7.5 9.99997C7.5 8.62197 8.622 7.49997 10 7.49997C11.378 7.49997 12.5 8.62197 12.5 9.99997C12.5 11.378 11.379 12.5 10 12.5ZM19.082 12.169C18.311 11.722 17.831 10.891 17.83 9.99997C17.829 9.10997 18.306 8.27997 19.085 7.82797C19.481 7.59797 19.616 7.08796 19.387 6.69196L17.715 3.80597C17.486 3.40997 16.978 3.27296 16.58 3.50296C15.803 3.95096 14.839 3.94996 14.061 3.49796C13.292 3.05296 12.815 2.22398 12.815 1.33698C12.815 0.875975 12.44 0.500977 11.978 0.500977H8.02302C7.56102 0.500977 7.18601 0.875975 7.18601 1.33698C7.18601 2.22498 6.70899 3.05297 5.93799 3.49997C5.16199 3.94897 4.197 3.95096 3.422 3.50296C3.023 3.27396 2.51502 3.41097 2.28602 3.80597L0.612004 6.69397C0.383004 7.08997 0.518995 7.59896 0.920995 7.83096C1.69099 8.27696 2.17 9.10597 2.172 9.99597C2.174 10.887 1.697 11.719 0.916997 12.171C0.724997 12.282 0.587003 12.462 0.530003 12.677C0.473003 12.891 0.503018 13.115 0.614018 13.308L2.28501 16.193C2.51501 16.59 3.024 16.726 3.422 16.497C4.198 16.05 5.162 16.051 5.93 16.497L5.93201 16.498C5.93401 16.499 5.93599 16.501 5.93799 16.502C6.70699 16.948 7.18301 17.776 7.18201 18.664C7.18201 19.125 7.55701 19.5 8.01801 19.5H11.977C12.438 19.5 12.813 19.125 12.813 18.665C12.813 17.777 13.291 16.948 14.062 16.501C14.837 16.051 15.802 16.05 16.578 16.498C16.975 16.727 17.484 16.59 17.714 16.195L19.388 13.306C19.618 12.91 19.481 12.401 19.082 12.169ZM16.932 15.551C15.873 15.006 14.597 15.035 13.559 15.636C12.531 16.232 11.874 17.319 11.818 18.5H8.17801C8.12401 17.319 7.46801 16.233 6.44001 15.636C5.40401 15.035 4.126 15.006 3.068 15.55L1.56 12.948C2.56 12.306 3.17399 11.188 3.17099 9.99197C3.16799 8.80497 2.556 7.69396 1.56 7.04996L3.068 4.44696C4.127 4.99196 5.40301 4.96296 6.44101 4.36096C7.46901 3.76496 8.125 2.67896 8.181 1.49796H11.818C11.874 2.67896 12.53 3.76498 13.561 4.36298C14.596 4.96298 15.872 4.99196 16.932 4.44696L18.44 7.04898C17.441 7.68998 16.829 8.80697 16.831 9.99997C16.832 11.19 17.444 12.303 18.441 12.947L16.932 15.551Z" fill="white"/>
</svg>
