<svg width="23" height="23" viewBox="0 0 23 23" fill="none" xmlns="http://www.w3.org/2000/svg">
<path d="M11.661 2.28223C6.33797 2.28223 2.00781 6.61239 2.00781 11.9355C2.00781 17.2585 6.33797 21.5887 11.661 21.5887C16.9841 21.5887 21.3143 17.2585 21.3143 11.9355C21.3143 6.61239 16.9841 2.28223 11.661 2.28223ZM11.661 20.6693C6.84546 20.6693 2.92717 16.751 2.92717 11.9355C2.92717 7.11987 6.84546 3.20158 11.661 3.20158C16.4766 3.20158 20.3949 7.11987 20.3949 11.9355C20.3949 16.751 16.4766 20.6693 11.661 20.6693ZM13.6726 8.25803H9.6504C8.5913 8.25803 7.98452 8.86574 7.98452 9.92391V13.9461C7.98452 15.0052 8.5913 15.612 9.6504 15.612H13.6726C14.7317 15.612 15.3385 15.0043 15.3385 13.9461V9.92391C15.3385 8.86574 14.7317 8.25803 13.6726 8.25803ZM14.4191 13.947C14.4191 14.4986 14.2233 14.6935 13.6726 14.6935H9.6504C9.09878 14.6935 8.90387 14.4986 8.90387 13.947V9.92481C8.90387 9.3732 9.0997 9.17829 9.6504 9.17829H13.6726C14.2242 9.17829 14.4191 9.3732 14.4191 9.92481V13.947Z" fill="white"/>
</svg>
