<svg width="12" height="12" viewBox="0 0 12 12" fill="none" xmlns="http://www.w3.org/2000/svg">
<path d="M11.2949 10.705C11.4574 10.8675 11.4574 11.1317 11.2949 11.2942C11.2132 11.3759 11.1066 11.4159 10.9999 11.4159C10.8932 11.4159 10.7865 11.3751 10.7049 11.2942L5.99989 6.58919L1.29489 11.2942C1.21322 11.3759 1.10655 11.4159 0.999886 11.4159C0.893219 11.4159 0.786549 11.3751 0.704883 11.2942C0.542383 11.1317 0.542383 10.8675 0.704883 10.705L5.40989 6.00005L0.704883 1.29505C0.542383 1.13255 0.542383 0.868359 0.704883 0.705859C0.867383 0.543359 1.13155 0.543359 1.29405 0.705859L5.99905 5.41091L10.7041 0.705859C10.8666 0.543359 11.1307 0.543359 11.2932 0.705859C11.4557 0.868359 11.4557 1.13255 11.2932 1.29505L6.58905 6.00005L11.2949 10.705Z" fill="#25314C"/>
</svg>
