<svg width="19" height="18" viewBox="0 0 19 18" fill="none" xmlns="http://www.w3.org/2000/svg">
<path d="M17.9192 2.96021H14.6472C13.6534 2.96021 13.5743 2.72302 13.339 2.01788L13.1523 1.45982C12.9023 0.70779 12.2008 0.202148 11.4083 0.202148H7.87984C7.08736 0.202148 6.38589 0.70779 6.13582 1.45982L5.95012 2.01788C5.71476 2.72302 5.6357 2.96021 4.64187 2.96021H1.37081C1.11707 2.96021 0.911133 3.16615 0.911133 3.41989C0.911133 3.67363 1.11707 3.87957 1.37081 3.87957H2.77926L3.4982 14.6654C3.62599 16.5749 4.79541 17.6699 6.70858 17.6699H12.5805C14.4937 17.6699 15.664 16.5749 15.7909 14.6654L16.5098 3.87957H17.9192C18.1729 3.87957 18.3789 3.67363 18.3789 3.41989C18.3789 3.16615 18.1729 2.96021 17.9192 2.96021ZM7.0083 1.75035C7.13425 1.37433 7.48451 1.1215 7.88076 1.1215H11.4093C11.8055 1.1215 12.1558 1.37341 12.2808 1.75035L12.4674 2.30839C12.5419 2.53087 12.621 2.75336 12.7294 2.96021H6.56148C6.66997 2.75244 6.74904 2.53087 6.8235 2.30839L7.0083 1.75035ZM14.8743 14.6048C14.7796 16.0288 14.0083 16.7505 12.5814 16.7505H6.70951C5.28267 16.7505 4.51133 16.0288 4.41664 14.6048L3.70138 3.87957H4.64279C4.75679 3.87957 4.84965 3.8667 4.95078 3.86026C4.98295 3.86762 5.01421 3.87957 5.04823 3.87957H14.2418C14.2767 3.87957 14.3071 3.8667 14.3392 3.86026C14.4404 3.86762 14.5332 3.87957 14.6472 3.87957H15.5886L14.8743 14.6048ZM11.9434 8.01666V12.6134C11.9434 12.8672 11.7375 13.0731 11.4837 13.0731C11.23 13.0731 11.024 12.8672 11.024 12.6134V8.01666C11.024 7.76292 11.23 7.55699 11.4837 7.55699C11.7375 7.55699 11.9434 7.76292 11.9434 8.01666ZM8.26597 8.01666V12.6134C8.26597 12.8672 8.06004 13.0731 7.80629 13.0731C7.55255 13.0731 7.34662 12.8672 7.34662 12.6134V8.01666C7.34662 7.76292 7.55255 7.55699 7.80629 7.55699C8.06004 7.55699 8.26597 7.76292 8.26597 8.01666Z" fill="white"/>
</svg>
