<svg width="13" height="13" viewBox="0 0 13 13" fill="none" xmlns="http://www.w3.org/2000/svg">
<path opacity="0.4" d="M11.3271 9.48112L8.02365 3.30302C7.38365 2.10602 5.66415 2.10602 5.02365 3.30302L1.72018 9.48112C1.13318 10.5791 1.9302 11.9051 3.1777 11.9051H9.8696C11.1166 11.9051 11.9141 10.5786 11.3271 9.48112Z" fill="#FDA622"/>
<path d="M6.5238 8.28027C6.3168 8.28027 6.1488 8.11227 6.1488 7.90527V5.90527C6.1488 5.69827 6.3168 5.53027 6.5238 5.53027C6.7308 5.53027 6.8988 5.69827 6.8988 5.90527V7.90527C6.8988 8.11227 6.7308 8.28027 6.5238 8.28027ZM7.03381 9.40527C7.03381 9.12927 6.81031 8.90527 6.53381 8.90527H6.52881C6.25281 8.90527 6.03125 9.12927 6.03125 9.40527C6.03125 9.68127 6.25781 9.90527 6.53381 9.90527C6.80981 9.90527 7.03381 9.68127 7.03381 9.40527Z" fill="white"/>
</svg>
