<svg width="8" height="10" viewBox="0 0 8 10" fill="none" xmlns="http://www.w3.org/2000/svg">
<path d="M3.64844 4.71399V7.37695C3.64844 7.58395 3.81644 7.75195 4.02344 7.75195C4.23044 7.75195 4.39844 7.58395 4.39844 7.37695V4.71399C5.52944 4.53249 6.39844 3.55795 6.39844 2.37695C6.39844 1.06745 5.33294 0.00195312 4.02344 0.00195312C2.71394 0.00195312 1.64844 1.06745 1.64844 2.37695C1.64844 3.55795 2.51744 4.53299 3.64844 4.71399ZM4.02344 0.751953C4.91944 0.751953 5.64844 1.48095 5.64844 2.37695C5.64844 3.27295 4.91944 4.00195 4.02344 4.00195C3.12744 4.00195 2.39844 3.27295 2.39844 2.37695C2.39844 1.48095 3.12744 0.751953 4.02344 0.751953ZM7.89844 7.87695C7.89844 8.94595 6.23244 9.75195 4.02344 9.75195C1.81444 9.75195 0.148438 8.94595 0.148438 7.87695C0.148438 7.19745 0.793938 6.61949 1.91844 6.29199C2.11744 6.23499 2.32544 6.348 2.38344 6.547C2.44144 6.746 2.32694 6.95396 2.12844 7.01196C1.27894 7.25946 0.898438 7.62495 0.898438 7.87695C0.898438 8.33545 2.11594 9.00195 4.02344 9.00195C5.93094 9.00195 7.14844 8.33545 7.14844 7.87695C7.14844 7.62495 6.76793 7.25946 5.91843 7.01196C5.71993 6.95396 5.60544 6.746 5.66344 6.547C5.72144 6.348 5.93044 6.23499 6.12844 6.29199C7.25294 6.61949 7.89844 7.19745 7.89844 7.87695Z" fill="#1C1A1A"/>
</svg>
